<svg xmlns="http://www.w3.org/2000/svg" version="1.1" xmlns:xlink="http://www.w3.org/1999/xlink" xmlns:svgjs="http://svgjs.dev/svgjs" width="1000" height="1000" viewBox="0 0 1000 1000"><rect width="1000" height="1000" fill="#ffffff"></rect><g transform="matrix(0.7,0,0,0.7,149.57575757575756,282.16010485829963)"><svg viewBox="0 0 396 247" data-background-color="#ffffff" preserveAspectRatio="xMidYMid meet" height="623" width="1000" xmlns="http://www.w3.org/2000/svg" xmlns:xlink="http://www.w3.org/1999/xlink"><g id="tight-bounds" transform="matrix(1,0,0,1,0.2400000000000091,-0.09999999999999432)"><svg viewBox="0 0 395.52 247.2" height="247.2" width="395.52"><g><svg></svg></g><g><svg viewBox="0 0 395.52 247.2" height="247.2" width="395.52"><g><g><path d="M279.342 237.855c-16.662 6.243-37.209 9.364-61.641 9.364-21.472 0-39.967-3.949-55.487-11.848h117.128zM222.619-0.019c23.337 0 43.958 3.949 61.862 11.848l-117.426 0c16.116-7.899 34.637-11.848 55.564-11.848z" fill="#ffdc00" fill-rule="nonzero" stroke="none" stroke-width="1" stroke-linecap="butt" stroke-linejoin="miter" stroke-miterlimit="10" stroke-dasharray="" stroke-dashoffset="0" font-family="none" font-weight="none" font-size="none" text-anchor="none" style="mix-blend-mode: normal" data-fill-palette-color="tertiary"></path></g></g><g transform="matrix(1,0,0,1,34.851417165668664,37.08)"><svg viewBox="0 0 325.81716566866265 173.04" height="173.04" width="325.81716566866265"><g><svg viewBox="0 0 325.81716566866265 173.04" height="173.04" width="325.81716566866265"><g><svg viewBox="0 0 325.81716566866265 173.04" height="173.04" width="325.81716566866265"><g><svg viewBox="0 0 325.81716566866265 173.04" height="173.04" width="325.81716566866265"><g><svg viewBox="0 0 325.81716566866265 173.04" height="173.04" width="325.81716566866265"><g><svg viewBox="0 0 325.81716566866265 173.04" height="173.04" width="325.81716566866265"><g transform="matrix(1,0,0,1,0,0)"><svg width="325.81716566866265" viewBox="3.05 -36.21 69.09 36.7" height="173.04" data-palette-color="#ffdc00"><path d="M20.19-32.5L20.19-32.5Q14.31-32.5 10.9-28.58 7.5-24.66 7.5-17.85L7.5-17.85Q7.5-10.84 10.78-7.02 14.06-3.2 20.14-3.2L20.14-3.2Q23.88-3.2 28.66-4.54L28.66-4.54 28.66-0.9Q24.95 0.49 19.51 0.49L19.51 0.49Q11.62 0.49 7.34-4.3 3.05-9.08 3.05-17.9L3.05-17.9Q3.05-23.41 5.11-27.56 7.18-31.71 11.07-33.96 14.97-36.21 20.24-36.21L20.24-36.21Q25.85-36.21 30.05-34.16L30.05-34.16 28.3-30.59Q24.24-32.5 20.19-32.5ZM40.6 0L36.45 0 36.45-35.69 40.6-35.69 40.6 0ZM72.14 0L68.09 0 68.09-17.31Q68.09-20.58 66.6-22.19 65.11-23.8 61.93-23.8L61.93-23.8Q57.73-23.8 55.78-21.53 53.83-19.26 53.83-14.04L53.83-14.04 53.83 0 49.78 0 49.78-26.76 53.07-26.76 53.73-23.1 53.93-23.1Q55.17-25.07 57.42-26.16 59.66-27.25 62.42-27.25L62.42-27.25Q67.26-27.25 69.7-24.91 72.14-22.58 72.14-17.46L72.14-17.46 72.14 0Z" opacity="1" transform="matrix(1,0,0,1,0,0)" fill="#000000" class="undefined-text-0" data-fill-palette-color="primary" id="text-0"></path></svg></g></svg></g></svg></g></svg></g><g></g></svg></g></svg></g></svg></g></svg></g><defs></defs></svg><rect width="395.52" height="247.2" fill="none" stroke="none" visibility="hidden"></rect></g></svg></g></svg>